<?xml version="1.0" encoding="utf-8"?>
<!-- Generator: Adobe Illustrator 18.0.0, SVG Export Plug-In . SVG Version: 6.00 Build 0)  -->
<!DOCTYPE svg PUBLIC "-//W3C//DTD SVG 1.1//EN" "http://www.w3.org/Graphics/SVG/1.1/DTD/svg11.dtd">
<svg version="1.1" id="Layer_1" xmlns="http://www.w3.org/2000/svg" xmlns:xlink="http://www.w3.org/1999/xlink" x="0px" y="0px"
	 viewBox="0 0 72 72" enable-background="new 0 0 72 72" xml:space="preserve">
<g>
	<path fill="#447BBF" d="M24.8,42.7c0,0.3,0,1.1-0.8,1.2c-0.1,0-0.3,0-0.4-0.1c0.1,0.1,0.2,0.3,0.3,0.3c1.1,0.3,1.3-0.4,1.1-1.3
		c-0.1-0.3-0.7-1-1.4-1.7C24.2,41.8,24.7,42.4,24.8,42.7z"/>
	<polygon fill="#447BBF" points="21.3,35.8 21.3,35.8 21.3,35.8 	"/>
	<polygon fill="#447BBF" points="19.2,36.6 19.2,36.6 19.2,36.6 	"/>
	<path fill="#447BBF" d="M34.1,37.7c-2.5,0.3-2.9,1.3-4.4,0.7c-0.1,0-0.1,0-0.2,0c-0.1,0.4-0.3,0.8-0.4,1.4
		c-0.2,1.7-0.5,4.1-0.7,4.5c-0.2,0.5,0.3,1.3,0.2,2.6c-0.1,1.3-1.2,3.4-1,4.4c0,0,0,0,0,0c0.2-0.3,0.4-0.6,0.4-0.7
		c0.2-0.5,3.4-6,3.9-6.9c0.4-0.8,2.9-3.9,3.8-5.1C35.5,38,35.2,37.5,34.1,37.7z"/>
	<path fill="#447BBF" d="M63.3,15.8L39.9,2.3c-2.3-1.3-5.3-1.3-7.6,0L8.9,15.8C6.5,17.2,5,19.8,5,22.5v27c0,2.7,1.5,5.3,3.8,6.6
		l23.4,13.5c1.2,0.7,2.5,1,3.8,1c1.3,0,2.7-0.4,3.8-1l23.4-13.5c2.4-1.4,3.8-3.9,3.8-6.6v-27C67.2,19.8,65.7,17.2,63.3,15.8z
		 M53.5,58c-0.4,0.5-1.4,0.3-1.4,0.3s-1.5-1.3-1.7-1.7c-0.1-0.4-0.1-1.5-0.7-2.1c-0.6-0.6-3.2-4.7-3.5-5.7c-0.3-0.9-1.8-1.7-1.8-2.6
		c0,0,0-0.1,0-0.1c-0.2-0.3-0.4-0.6-0.6-0.8c-0.5-0.6-2.3-4.2-2.9-4.4c-0.6-0.2-0.7-0.3-1.8-0.2C38,42,36,44.6,35,45
		c-1.7,0.7-2.3,3.3-2.9,4.3c-0.6,1.1-2.4,3.1-3.4,3.7s-1.3,1.8-1.4,2.2c-0.1,0.4,0.2,1.2-0.2,1.6C27,57,26.4,57,25.9,57
		c-0.5,0-1.1-0.2-1.9,0c-0.4,0.1-1.4,0.1-1.9,0c-0.4-0.1-0.6,0-0.6,0c-0.3,0-0.5,0-0.5-0.3c0-0.2,0.6-0.3,0.9-0.3
		c0.3,0,1.5-0.5,2-0.9c0.4-0.3,0.9-0.9,1.3-1.3c-0.1,0.1-0.2,0.1-0.2,0.1s-0.5-0.2,0.5-1.2c0.4-0.4,0.6-1.1,0.9-1.4
		c0.5-0.5,0.2-2.8,0.2-3.5c0-0.7,0.1-3.1,0.3-3.7c0.3-0.6-0.2-3.2-0.3-4.4c-0.1-1.2,0.3-2.7,0.5-3.6c0-0.3,0-0.6,0-0.9
		c-0.3-0.1-0.6-0.2-0.8-0.2c-0.9,0.9-2.6,1.2-3.5,1.2c0,0,0,0-0.1,0.1c-0.1,0.1-0.2,0.2-0.3,0.2c-0.4,0.5-0.5,2.4,1.9,2.9
		c2.2,0.5,1.8,3.5,1.4,4.4c-0.6,1.2-1.6,1-2.4,0.7c-0.7-0.3-0.7-1.6-0.1-1.3c0,0,0,0,0,0c1.1-0.2,0.7-1.3,0-1.8
		c-0.4-0.3-1.8-1.7-2.4-2.6c-0.2-0.2-0.2-0.5-0.2-0.7c0,1.2,1.6,2.5,2.1,3c0.9,0.9,0.3,1.7-0.2,1.9c-0.7,0.3-1.4-0.3-1.3-0.7
		c0-0.2,0.2-0.2,0.5,0.1c0.2,0.4,0.8-0.6,0.4-1.2c-0.4-0.6-1.3-0.9-1.9-2.7c-0.3-1-0.1-1.8,0.3-2.3c-0.1,0-0.3,0-0.5,0.1
		c-0.3,0.1-0.3,0.9-0.1,1.5c0.2,0.9,0.7,1.9,0.7,2.6c0,0.3-0.2,0.4-0.5,0.4c0.4-0.2,0.1-1.8-0.7-3.3c-0.1-0.2-0.2-0.5-0.2-0.7
		c0,0.3,0,0.5,0.1,0.8c0.3,1.3-0.1,1.2-0.1,1.2c0.2-0.5-0.1-1.3-0.2-1.6c-0.1-0.3,0-0.3-0.1-1c-0.1-0.9,0.5-1.5,1.2-1.5
		c0.4,0,0.7,0.2,0.8,0.4c-0.6-0.9-0.7-2.1-0.1-3.1c0,0,1.1-1.3,2.1-1.3c1-0.1,1.5,0.3,1.8,0.3c0.2,0,0.8-0.3,1-0.2
		c0.1,0,0.1,0.3,0.2,0.4c0.2,0.3,1.4,0.3,1.4,0.6c0,0.2-0.1,0.6-0.2,1.2c0.1,0,0.2,0,0.4,0c0.1-0.5,0.3-0.9,0.4-1.2c0,0,0,0,0-0.1
		c0-0.9,0.2-2.1,0.6-3.7c0.2-0.7,0-2.7,0.1-3.8c-0.5-1.3-0.6-5.1-0.6-6.6c-0.2-0.1-0.5-0.3-0.5-0.7c-0.1-0.6-1.5-2.3-1.2-2.6
		c0.4-0.3,0.8,1.5,0.9,1.1c0.1-0.3-0.4-2.5-0.1-2.6c0.3-0.1,0.5-0.3,0.7-0.3c0.2,0.1,0.3,0.4,0.3,0.4s0.6,0.3,0.8,0.6
		c0,0,0.4,2.7,0.3,3.2c0,0.1-0.1,0.2-0.1,0.3c0,0,0,0.1,0,0.2c0,0.8,1.1,6.3,1.1,7c0,0.1,0,0.1,0,0.2c0,0,0,0.1,0,0.1
		c0,0,0.5,4.3,0.5,4.9c0,0.3,0.1,0.8,0,1.3c0.1,0.2,0.1,0.4,0.2,0.8c0.1,0,0.1,0,0.2-0.1c0.2-0.1,1.2-0.2,1.4,0
		c0.5,0.5,0.5,0.8,0.9,1c1.5,0.8,2.4,0.8,4,0.8c1.2,0,3.7,0.9,4.6,2.1c0.7,0.5,1.3,1.1,1.4,1.5c0.4,1.1,2.7,5.1,3.3,7.5
		c0,0,0,0,0.1,0.1c0.4,0.5,1,1.8,1.7,2.9c0.7,1.1,2.1,6.6,2.6,7.5C52,56.4,53.9,57.4,53.5,58z"/>
</g>
</svg>
