<?xml version="1.0" encoding="utf-8"?>
<!-- Generator: Adobe Illustrator 18.0.0, SVG Export Plug-In . SVG Version: 6.00 Build 0)  -->
<!DOCTYPE svg PUBLIC "-//W3C//DTD SVG 1.1//EN" "http://www.w3.org/Graphics/SVG/1.1/DTD/svg11.dtd">
<svg version="1.1" id="Layer_1" xmlns="http://www.w3.org/2000/svg" xmlns:xlink="http://www.w3.org/1999/xlink" x="0px" y="0px"
	 viewBox="0 0 72 72" enable-background="new 0 0 72 72" xml:space="preserve">
<g>
	<path fill="#447BBF" d="M27.9,29.6c-0.1,0.3-0.1,0.6-0.4,1c-0.3,0.5-0.4,0.3-0.3,0.7c0.2,0.4,0.4,1.5,0.6,1.5s0.2,0,0.2,0
		s0.1-0.2,0.3-0.4c0.2-0.1,0.3-0.2,0.3-0.6c0-0.4,0-0.4,0.3-0.8c0.3-0.4,0.2-0.6,0.3-0.8c0.2-0.2,0.3-0.2,0.5-0.2s0.5-0.2,0.8-0.3
		c0.1-0.1,0.1-0.1,0-0.2C29.6,29.6,28.8,29.6,27.9,29.6z"/>
	<path fill="#447BBF" d="M43.4,29.8c-0.9,0-1.7-0.1-2.6-0.1c0.1,0.1,0.2,0.2,0.3,0.2c0.4,0.2,0.9,0.8,1.1,0.8s0.1,0.1,0.1,0.3
		s0.1,0.7,0.3,0.8c0.2,0.2,0.1,0.5,0.1,0.6c0,0.1,0.2-0.1,0.3,0.1c0.1,0.1,0,0.4,0.1,0.3c0.1,0,0.2,0,0.2,0.1
		c0.1-0.2,0.6-1.1,0.6-1.5c0-0.4-0.2-0.7-0.4-1.1C43.4,30.1,43.3,30,43.4,29.8z"/>
	<path fill="#447BBF" d="M63.3,15.8L39.9,2.3c-2.4-1.3-5.4-1.3-7.7,0L8.8,15.9C6.5,17.2,5,19.8,5,22.5v27c0,2.7,1.4,5.2,3.8,6.6
		l23.4,13.6c1.1,0.6,2.5,1,3.8,1s2.7-0.4,3.8-1.1L63.3,56c2.3-1.3,3.8-3.9,3.8-6.6v-27C67.1,19.7,65.7,17.2,63.3,15.8z M64,31.5
		c-0.5,5-1.8,5.2-2.3,5.2c-0.4,0-6.8-0.4-8-0.5c-1.1-0.1-1.3-2.8-1.2-5.4c-1.2-0.1-3.5-0.2-6.2-0.3c0,0.1,0,0.2,0,0.2
		c0.1,0.2,0.1,1.1-0.1,1.2c0,0.5-0.4,1.6-0.6,2.5c-0.2,0.9-0.8,2.1-1.7,2.9c0.5,0.4,1.1,0.8,1.2,2.2c0.1,1.4-0.3,2.7-0.8,3.2
		c-0.5,0.4-0.7,0.6-0.7,0.9c-0.1,0.4-0.5,0.6-0.5,0.6s-0.4,0.4-0.4,0.8c0.1,0.1,0.1,0.3,0.1,0.4c0,0.1,0.1,0.2,0.2,0.2
		s0.4,0.1,0.3,0.5c0.3,0.2,0.3,0.4,0.3,0.4c0,0.1,0.6,0.6,0.9,1.1s0.2,1,0.1,1.3c-0.1,0.3-0.9,0.5-1.6,0.2c-0.7-0.3-0.8-0.5-0.9-0.9
		c-0.1-0.4-0.4-0.5-0.4-0.5s-0.4,0.1-0.8-0.1c-0.4-0.2-0.3-0.3-0.3-0.5c0-0.1,0-0.9,0-1.4s0.1-0.8,0.5-0.8c0.1-0.6,0.3-1.2,0.3-1.3
		c0,0-0.1-0.1,0-0.2c0.1-0.1,0.1-0.3,0.1-0.5c0-0.2-0.2-0.5-0.2-0.7c0.1-0.1-1,1.3-3,1.4c-2,0-3.1-0.1-3.7,0c-0.6,0.1-2.2,0.3-3-0.4
		c-0.9-0.7-0.8-0.5-0.8-0.4c0,0,0.1,0.5,0.2,0.6c0.1,0.1,0,0.3,0,0.3s0.3,1.1,0.5,1.2c0.2,0,0.4,0.2,0.4,0.7s0.1,1.6,0.1,1.8
		c0,0.2-0.2,0.3-0.5,0.4c-0.2,0.1-0.5,0.1-0.7,0.2c-0.2,0.2-0.6,1.2-2.1,1.2s-1.2-1.4-0.6-1.8c0.6-0.4,1-0.6,1-0.9S29,46,29.2,45.9
		c0.2,0,0.4-0.2,0.4-0.2s0.1-0.1,0.2-0.2c0.1-0.1,0-0.4,0-0.5s-0.1,0-0.1-0.1c-0.1-0.1-0.3,0.1-0.5-0.3c-0.1-0.3-0.7-1.1-1.2-1.5
		c-0.5-0.4-1.1-1-1-2.8c0.1-1.7,0.6-2.9,2.1-3.1c1.4-0.2,2.3,0.3,2.3,0.3s-0.1-0.2,0-0.4c0-0.2,0-0.3-0.2-0.5
		c-0.2-0.2-0.1-0.4,0-0.5c0.1-0.1,0-0.2-0.1-0.3c-0.1-0.1-0.2-0.3-0.2-0.4c0-0.1-0.3,0.5-0.6,0.6c-0.4,0.4-1.1,1.2-1.6,1.2
		s-0.8-0.2-1.1-0.5c-0.6-0.3-1.3-2-1.6-3.4c-0.3-1.4,0-1.6-0.2-1.8c-0.1-0.2-0.2-0.4-0.2-0.8c-0.1-0.4,0.2-0.5,0.2-0.6
		c-2.6,0.1-4.8,0.2-5.8,0.2c0,3-0.2,5.3-1.5,5.4c-1.3,0.1-7,0.1-7.7,0.1s-2.4-1.3-2.4-5.6s1.4-5.7,2.3-5.7c0.8,0,6.7-0.2,7.3-0.2
		s1.9,1.2,2,5.2c1.7,0,3.7-0.1,5.8-0.1v-0.1c0.1-0.2,0.3-0.3,0.6-0.2c0.1-0.2,0.5-0.4,0.6-0.2c0.1-0.2,0.5-0.1,0.6-0.1
		c0.1,0,0.1,0.1,0.1,0.1s0.2-0.5,0.4-0.5c0.2,0,0,0.3,0.2,0.5c0,0,0,0.2,0,0.3c1.3,0,2.6,0,3.9,0c0.4-0.2,1-0.6,1.5-0.6
		c0.1-0.4,0.2-0.5,0.1-0.6c-0.2-0.2-0.2-0.4-0.2-0.4s-0.3,0.1-0.4-0.2c-0.1-0.3-0.4-1.5,0.2-1.2c0-0.5-0.3-2.7,2.1-2.8
		c2.4-0.1,2.4,2.7,2.4,2.7s0.3-0.2,0.3,0.2c0.1,0.4-0.1,0.7,0,0.9c0,0.2-0.4,0.4-0.4,0.4s-0.1,0.6-0.1,0.7c0.1,0.1,0.9,0.4,1.4,0.7
		c0.1,0.1,0.2,0.1,0.3,0.2c1.2,0,2.6,0,4,0.1c0-0.2,0.1-0.2,0.2-0.3c0.1-0.1,0.3-0.5,0.4-0.5c0.1-0.1,0.2,0.4,0.2,0.4
		s0.2-0.3,0.4-0.3c0.2,0,0.3,0.3,0.3,0.3s0.2-0.2,0.4-0.1c0.2,0.1,0.2,0.2,0.2,0.2s0.3-0.1,0.4,0.2v0.1c2.8,0.1,5.3,0.2,6.3,0.3
		c0.3-4.6,1.5-5.1,2.2-5.1c0.7,0,7.2,0.3,7.8,0.4C62.8,24.9,64.2,26.5,64,31.5z"/>
</g>
</svg>
