<?xml version="1.0" encoding="utf-8"?>
<!-- Generator: Adobe Illustrator 18.0.0, SVG Export Plug-In . SVG Version: 6.00 Build 0)  -->
<!DOCTYPE svg PUBLIC "-//W3C//DTD SVG 1.1//EN" "http://www.w3.org/Graphics/SVG/1.1/DTD/svg11.dtd">
<svg version="1.1" id="Layer_1" xmlns="http://www.w3.org/2000/svg" xmlns:xlink="http://www.w3.org/1999/xlink" x="0px" y="0px"
	 viewBox="0 0 72 72" enable-background="new 0 0 72 72" xml:space="preserve">
<g>
	<path fill="#447BBF" d="M13.7,47.4c-0.2,0-0.3,0-0.4,0c0,0,0,0,0,0c0.2,0.5,1.1,1,1.5,1c0.4,0,0.8-0.1,1-0.3
		c-0.1-0.1-0.2-0.1-0.2-0.2C15.2,47.3,14.8,47.4,13.7,47.4z"/>
	<path fill="#447BBF" d="M33.9,9.5c0.9-0.2,1.8-0.2,2.2-0.3c0.3,0,0.6-0.2,0.8-0.3c0.5-0.3,0.7-0.7,0.7-0.7
		c-0.1,0.2-0.4,0.5-0.8,0.7C36.7,9,36.1,9,35.9,9c-0.4,0.1-1.3,0-2.1-0.1c-0.9-0.1-1.3,0.2-1.8,0.4c-1.1,0.5-0.4,2.6-0.4,2.6
		C31.7,10.3,32.8,9.7,33.9,9.5z"/>
	<path fill="#447BBF" d="M36.4,9.5c-0.5,0.2-0.2,0.1-1.3,0.3c-1.7,0.4-1.8,1.5-1.8,1.5c0.2-0.9,2.7-1.2,3.5-1.6
		c0.3-0.2,0.4-0.4,0.6-0.6c0.2-0.4,0.2-0.9,0.2-0.9c-0.2,0.4-0.3,0.6-0.4,0.8C37,9.2,36.8,9.3,36.4,9.5z"/>
	<path fill="#447BBF" d="M37.5,9.1c-0.1,0.3-0.2,0.6-0.3,0.8c-0.6,0.9-1.7,0.9-2.5,1c-0.4,0.1-0.9,0.2-1.1,0.4
		c-0.1,0.1-0.2,0.3-0.3,0.4c-0.5,0.9-0.2,2-0.2,1.4c0.1-0.8,1.1-1.9,2.4-1.9c1.3,0,1.8-0.7,2-1.4C37.6,9.6,37.6,9.4,37.5,9.1
		c0.1-0.1,0-0.3,0-0.3C37.6,9,37.6,9.1,37.5,9.1z"/>
	<path fill="#447BBF" d="M36.8,34c0,0,1,1,1.9,0.9c1.4-0.1,1.5-1.4,1.5-1.4C38.8,35.1,36.8,34,36.8,34z"/>
	<path fill="#447BBF" d="M63.3,15.8L39.9,2.3c-2.3-1.3-5.3-1.3-7.6,0L8.9,15.8C6.5,17.2,5,19.8,5,22.5v27c0,2.7,1.5,5.3,3.8,6.6
		l23.4,13.5c1.2,0.7,2.5,1,3.8,1c1.3,0,2.7-0.4,3.8-1l23.4-13.5c2.4-1.4,3.8-3.9,3.8-6.6v-27C67.2,19.8,65.7,17.2,63.3,15.8z
		 M42.2,13.8c0.2,1.2,0,2.7-1.9,3.2c0,0,1.5-0.7,1.4-2.9c0-0.8-0.7-2.3-1.4-3.5C40.4,10.6,41.9,12.3,42.2,13.8z M39.9,35.4
		c-0.2,1.1,0.6,4.5,0.6,4.5S38.9,41,36.2,41v0c0,0,0,0,0,0c0,0,0,0,0,0v0c-2.7,0-4.3-1.1-4.3-1.1s0.8-3.4,0.6-4.5
		c-0.2-1.1-2-3.1-2.7-3.8c-0.7-0.7,0.5-2.8,0.9-3.4c0.4-0.6,0.4-2.3,0.4-2.3l0-2.1l0.7-0.1c-0.4,5.4,3.9,6.8,4.3,7
		c0.5-0.1,4.8-1.6,4.3-7l0.7,0.1l0,2.1c0,0,0,1.7,0.4,2.3c0.4,0.6,1.6,2.6,0.9,3.4C41.9,32.3,40.1,34.3,39.9,35.4z M41.9,43.4
		l1.8,2.5c0,0-4.1,2.3-4.8,2.3c-0.6,0-2.4,0.2-2.8,0.3v0c0,0-1.2,0.4-1.6-0.1c-0.4-0.6-2-1.6-3.2-1.3c-1.6,0.4-3.3-0.5-3.9-0.7
		c-0.5-0.2,1.5-0.8,1.5-0.8l1.4-2.3l1.3-2.4c1.4,1.4,7.8,1.3,9.2-0.1L41.9,43.4z M32.3,14.6c0.2,2.1,0.4,5-1.5,7.2
		c-1.7,2-2.2,2.2-2.2,2.2s0.7-2.7,1.7-3.6c0.6-0.6,1.2-0.4,1.5-2.5c0.2-1.8,0.1-1.5,0.2-3.5c0-0.5,0.2-3.1,0.9-3.5
		C32.8,10.8,32.1,13.1,32.3,14.6z M37.6,19.7c0,0-0.1,2.4,0.6,3.3c0.6,0.8,2.1,1.1,2.1,1.1s-0.7,4.2-4,5c-4.4-0.7-4.2-5-4.2-5
		s1.5-0.3,2.1-1.1c0.6-0.8,0.6-3.2,0.6-3.2c0.4,0.7,1.2,0.7,1.4,0.7v0c0,0,0,0,0.1,0c0,0,0,0,0,0v0C36.4,20.5,37.2,20.4,37.6,19.7z
		 M41.1,12.2c0.3,0.7,0.5,3.5-0.9,4.6c-1,0.8-1.1,0.2-1.1,0.2s4.3-3.9-0.7-8C38.4,9.1,39.9,9.1,41.1,12.2z M31,10.5
		c0.4-3.2,3.4-3.4,5-3.2c2.3,0.2,2.2,2.1,2.1,2.2c0.7,0.6,1.2,1.5,1.2,3.2c0.1,3.5-1.2,6-3.3,6.3v0c0,0,0,0,0,0c0,0,0,0,0,0v0
		c-2.1-0.3-3.4-2.9-3.3-6.3c0-0.8,0.1-1.4,0.3-2c-0.3-0.1-0.7,0.1-0.9,0.9c-0.4,1.5-0.1,3.6-1.7,6.5c-0.5,1-1.7,1.2-1.7,1.2
		s-0.3-1.9,0.5-2c0.8-0.1,0.9-0.3,1.3-1C32,13.7,30.8,12.4,31,10.5z M29.7,16.2c-0.3,0.3-0.7,0.7-0.7,0.7s-0.6-1.2,0.7-1.6
		c0.5-0.1,1.3-2.6,1.3-2.6C31,14,30.4,15.6,29.7,16.2z M26.2,14.2c-0.9-4.7,4.5-3.8,4.5-3.8s-4.6,0.7-3.9,4.1
		c0.5,2.7-0.5,7.4-0.7,7.6c0,0,0.5-2.2,0.5-3.2C26.5,17.7,26.8,17,26.2,14.2z M27.3,15.6c0.6-5,3.5-5,3.5-5s0.3,1.6-1.4,2.4
		c-0.6,0.3-1.6,1.4-1.2,3.6c0.6,3.3-0.5,6.2-1.1,7.4c-1.7,3.2-2.8,1.9-2.8,1.9C28,24.7,26.8,18.8,27.3,15.6z M22,26.1
		c0,0,1.3-0.5,1.3,0.4c0,0.9,2.5,0.5,3.2-0.3c1.6-1.9,1.8-5,2-5.5c0.3-1,1-1.2,1-1.2s-1.5,7.1-3.9,8.6C22.8,30,21,27.9,22,26.1z
		 M38.2,53.3C37.6,53.6,27,55.6,22,56.1c-1,0.1-2.5-0.5-2.9-0.6C17,54.7,16.2,53.7,16,52c-0.1-0.5,0.2-1.6,0.6-2.1
		c-0.8,0.3-1.8,0.5-2.8,0.6c-0.4,0-1.6,0.2-1.7-0.1c-0.1-0.1-0.1-0.2-0.2-0.2c-0.1-0.1-0.2-0.1-0.3-0.2c-0.3-0.4,0.9-0.6,1.2-0.6
		c0.2,0,0.5,0,0.8-0.1c-0.2-0.1-0.5-0.3-0.5-0.5c0-0.1,0.1-0.2,0.2-0.3c-0.6-0.6-1.2-1.4-1-1.4c0,0,0.2,0,0.4,0
		c-0.1-0.1-0.1-0.3-0.1-0.4c0.1-0.2,2.4,0.3,2.9,0.3c0.5,0.1,1.2,0,2-0.2c0.4-0.1,0.8,0,1,0.2c0-0.1,0.1-0.2,0.1-0.2
		c0.8-1,6.6-8.3,6.8-8.8C26,37,27,29.4,27,28.2c0-1.1,1.6-3.6,2.1-4c0.4-0.4,1.5-0.5,1.5-0.5s0.2,2.5,0.1,3.3
		c-0.1,0.8-1.9,2.9-1.9,3.8s1.5,2.2,1.5,2.2s-1.7,5.6-2.7,7.3c-0.7,1.4-5.7,5.6-7.9,7.3c-0.1,0.3-0.3,0.7-0.7,1
		c0.8-0.2,1.4-0.4,1.4-0.4l1.1,0c0.4-0.1,1.4,0.1,2.7,0.5c-1.3,0.3-3,1.4-3,1.4c1.9-0.7,3.5-0.8,4.6-0.7c1.2,0.5,2.4,1.1,3.4,1.8
		C30.1,51.8,39,52.9,38.2,53.3z M60.5,49.6c-0.1,0.1-0.2,0.1-0.3,0.2c-0.1,0.1-0.1,0.1-0.2,0.2c-0.1,0.3-1.3,0.1-1.7,0.1
		c-1.2-0.1-2.3-0.4-3.2-0.8c0,0,0,0,0,0c1.4,1,1.9,2.3,1.9,3.6c0,0.5-0.1,0.8-0.2,1.1c-0.1,1.1-2.7,2.6-3.8,2.6
		c-1.2,0-10.5-2-11.6-2.5c-1.1-0.5-6.5-2.7-8.3-2.8c-1.8-0.1-6.2-2.2-7.2-2.5c-1-0.2-1.6-0.5-2.1-0.5c-0.5,0-0.8-0.5-0.8-0.5
		s-0.3-0.5,2-0.4c0.6,0,1.2-0.5,1.9-0.5c0.6,0.1,1.9,0.9,2.9,0.9c1,0,1.4-0.4,2.4-0.4c1,0,1.9,1.2,1.9,1.2s0.7,0.6,2.5,0.9
		c0.8,0.1,4.7-0.6,8.8-0.1c4.2,0.5,8,1.4,8,1.4c-1.1-0.6-3.6-1.2-5.8-1.5c0.1-0.1,0.2-0.5-0.1-0.6c-0.3-0.1-1.2,0-1.5,0
		s-0.6-0.2-1.3-0.6c-0.5-0.3-3.2,0.6-4.2,0.9c-1.7,0.1-3.3,0.2-3.3,0.2s-0.7-0.4-0.2-0.4c0.5,0,3.7-0.6,4.6-1.2
		c0.9-0.6,2.6-1.2,2.6-1.2s5.9,1.2,9.1,2.2c-0.3-0.2-0.5-0.4-0.6-0.6c-2-1.6-7.3-6.1-8.1-7.5c-0.9-1.8-2.7-7.3-2.7-7.3
		s1.5-1.4,1.5-2.2c0-0.9-1.8-3.1-1.9-3.8c-0.1-0.8,0.1-3.3,0.1-3.3s1.1,0.1,1.5,0.5c0.4,0.4,2.1,2.9,2.1,4c0,1.1,1,8.8,1.4,9.7
		c0.2,0.5,5.6,7.3,6.7,8.7c0.3-0.2,0.7-0.4,1.2-0.3c0.9,0.2,1.5,0.3,2,0.2c0.5-0.1,2.8-0.6,2.9-0.3c0,0.1,0,0.3-0.1,0.4
		c0.2,0,0.4,0,0.4,0c0.2,0-0.4,0.8-1,1.4c0.1,0.1,0.2,0.1,0.2,0.3c0,0.3-0.3,0.4-0.5,0.5c0.3,0.1,0.6,0.1,0.8,0.1
		C59.7,49,60.8,49.2,60.5,49.6z"/>
	<path fill="#447BBF" d="M34.9,33.9c-1.9,1-3.3-0.8-3.3-0.8s0.6,1.3,1.4,1.6C34.2,35.1,34.9,33.9,34.9,33.9z"/>
	<path fill="#447BBF" d="M58.9,47C58.9,47,58.9,47,58.9,47c-0.1,0-0.3,0-0.4,0c-1,0-1.4-0.1-1.9,0.4c-0.1,0.1-0.2,0.2-0.2,0.2
		c0.2,0.2,0.6,0.3,1,0.3C57.7,48,58.7,47.5,58.9,47z"/>
</g>
</svg>
